<mxfile host="Electron" modified="2024-03-01T17:18:57.763Z" agent="Mozilla/5.0 (Windows NT 10.0; Win64; x64) AppleWebKit/537.36 (KHTML, like Gecko) draw.io/23.1.5 Chrome/120.0.6099.109 Electron/28.1.0 Safari/537.36" etag="FXJ3309yvnIHuNyT7O1q" version="23.1.5" type="device">
  <diagram name="Page-1" id="krlLLVuHp6nMf8_PuCLu">
    <mxGraphModel dx="972" dy="554" grid="1" gridSize="10" guides="1" tooltips="1" connect="1" arrows="1" fold="1" page="1" pageScale="1" pageWidth="850" pageHeight="1100" math="0" shadow="0">
      <root>
        <mxCell id="0" />
        <mxCell id="1" parent="0" />
        <mxCell id="wE5hzmVtrxH4fMtxzaI--26" style="edgeStyle=orthogonalEdgeStyle;rounded=0;orthogonalLoop=1;jettySize=auto;html=1;entryX=0.5;entryY=0;entryDx=0;entryDy=0;fontFamily=Helvetica;fontStyle=0" parent="1" source="wE5hzmVtrxH4fMtxzaI--2" edge="1">
          <mxGeometry relative="1" as="geometry">
            <mxPoint x="425" y="150" as="targetPoint" />
          </mxGeometry>
        </mxCell>
        <mxCell id="wE5hzmVtrxH4fMtxzaI--2" value="Start" style="rounded=1;whiteSpace=wrap;html=1;arcSize=50;fontFamily=Helvetica;fontStyle=0;fontSize=41;" parent="1" vertex="1">
          <mxGeometry x="355" y="60" width="140" height="70" as="geometry" />
        </mxCell>
        <mxCell id="wE5hzmVtrxH4fMtxzaI--14" style="edgeStyle=orthogonalEdgeStyle;rounded=0;orthogonalLoop=1;jettySize=auto;html=1;fontFamily=Helvetica;fontStyle=0" parent="1" source="wE5hzmVtrxH4fMtxzaI--5" edge="1">
          <mxGeometry relative="1" as="geometry">
            <mxPoint x="425.52941176470586" y="250" as="targetPoint" />
          </mxGeometry>
        </mxCell>
        <mxCell id="wE5hzmVtrxH4fMtxzaI--42" style="edgeStyle=orthogonalEdgeStyle;rounded=0;orthogonalLoop=1;jettySize=auto;html=1;fontFamily=Helvetica;fontStyle=0;" parent="1" source="wE5hzmVtrxH4fMtxzaI--5" edge="1">
          <mxGeometry relative="1" as="geometry">
            <mxPoint x="425" y="680" as="targetPoint" />
            <Array as="points">
              <mxPoint x="560" y="190" />
              <mxPoint x="560" y="650" />
              <mxPoint x="425" y="650" />
            </Array>
          </mxGeometry>
        </mxCell>
        <mxCell id="wE5hzmVtrxH4fMtxzaI--5" value="&lt;div style=&quot;font-size: 19px;&quot;&gt;for i = 1 to n - 1&lt;/div&gt;&lt;div style=&quot;font-size: 19px;&quot;&gt;n - size of sorted data&lt;/div&gt;" style="shape=hexagon;perimeter=hexagonPerimeter2;whiteSpace=wrap;html=1;fixedSize=1;fontFamily=Helvetica;fontStyle=0;fontSize=19;" parent="1" vertex="1">
          <mxGeometry x="343" y="150" width="165" height="80" as="geometry" />
        </mxCell>
        <mxCell id="wE5hzmVtrxH4fMtxzaI--49" value="no" style="text;html=1;align=center;verticalAlign=middle;resizable=0;points=[];autosize=1;strokeColor=none;fillColor=none;fontFamily=Helvetica;fontStyle=0;fontSize=14;" parent="1" vertex="1">
          <mxGeometry x="500" y="360" width="40" height="30" as="geometry" />
        </mxCell>
        <mxCell id="AJ-jYtxmaR9qbUo1SPaE-3" style="edgeStyle=orthogonalEdgeStyle;rounded=0;orthogonalLoop=1;jettySize=auto;html=1;entryX=0.5;entryY=0;entryDx=0;entryDy=0;fontFamily=Helvetica;fontStyle=0" parent="1" source="AJ-jYtxmaR9qbUo1SPaE-1" target="AJ-jYtxmaR9qbUo1SPaE-2" edge="1">
          <mxGeometry relative="1" as="geometry" />
        </mxCell>
        <mxCell id="AJ-jYtxmaR9qbUo1SPaE-1" value="temp = data[i]&lt;br style=&quot;font-size: 20px;&quot;&gt;j = i" style="rounded=0;whiteSpace=wrap;html=1;fontFamily=Helvetica;fontStyle=0;fontSize=20;" parent="1" vertex="1">
          <mxGeometry x="360.5" y="250" width="130" height="60" as="geometry" />
        </mxCell>
        <mxCell id="AJ-jYtxmaR9qbUo1SPaE-5" style="edgeStyle=orthogonalEdgeStyle;rounded=0;orthogonalLoop=1;jettySize=auto;html=1;entryX=0.5;entryY=0;entryDx=0;entryDy=0;fontFamily=Helvetica;fontStyle=0" parent="1" source="AJ-jYtxmaR9qbUo1SPaE-2" target="AJ-jYtxmaR9qbUo1SPaE-4" edge="1">
          <mxGeometry relative="1" as="geometry" />
        </mxCell>
        <mxCell id="AJ-jYtxmaR9qbUo1SPaE-10" style="edgeStyle=orthogonalEdgeStyle;rounded=0;orthogonalLoop=1;jettySize=auto;html=1;entryX=0.5;entryY=0;entryDx=0;entryDy=0;fontFamily=Helvetica;fontStyle=0" parent="1" source="AJ-jYtxmaR9qbUo1SPaE-2" target="AJ-jYtxmaR9qbUo1SPaE-9" edge="1">
          <mxGeometry relative="1" as="geometry">
            <mxPoint x="540" y="560" as="targetPoint" />
            <Array as="points">
              <mxPoint x="530" y="390" />
              <mxPoint x="530" y="540" />
              <mxPoint x="425" y="540" />
            </Array>
          </mxGeometry>
        </mxCell>
        <mxCell id="AJ-jYtxmaR9qbUo1SPaE-2" value="data[j-1]&amp;gt;temp&lt;br style=&quot;font-size: 16px;&quot;&gt;&amp;amp;&amp;amp; j &amp;gt; 0?" style="rhombus;whiteSpace=wrap;html=1;fontFamily=Helvetica;fontStyle=0;fontSize=16;" parent="1" vertex="1">
          <mxGeometry x="345" y="350" width="160" height="80" as="geometry" />
        </mxCell>
        <mxCell id="AJ-jYtxmaR9qbUo1SPaE-7" style="edgeStyle=orthogonalEdgeStyle;rounded=0;orthogonalLoop=1;jettySize=auto;html=1;fontFamily=Helvetica;fontStyle=0" parent="1" source="AJ-jYtxmaR9qbUo1SPaE-4" edge="1">
          <mxGeometry relative="1" as="geometry">
            <mxPoint x="425" y="330" as="targetPoint" />
            <Array as="points">
              <mxPoint x="425" y="530" />
              <mxPoint x="311" y="530" />
              <mxPoint x="311" y="330" />
            </Array>
          </mxGeometry>
        </mxCell>
        <mxCell id="AJ-jYtxmaR9qbUo1SPaE-4" value="data[j]=data[j-1]&lt;br style=&quot;font-size: 18px;&quot;&gt;j=j-1" style="rounded=0;whiteSpace=wrap;html=1;fontFamily=Helvetica;fontStyle=0;fontSize=18;" parent="1" vertex="1">
          <mxGeometry x="360" y="450" width="130" height="60" as="geometry" />
        </mxCell>
        <mxCell id="AJ-jYtxmaR9qbUo1SPaE-8" value="yes" style="text;html=1;align=center;verticalAlign=middle;resizable=0;points=[];autosize=1;strokeColor=none;fillColor=none;fontFamily=Helvetica;fontStyle=0;fontSize=14;" parent="1" vertex="1">
          <mxGeometry x="420" y="420" width="50" height="30" as="geometry" />
        </mxCell>
        <mxCell id="AJ-jYtxmaR9qbUo1SPaE-11" style="edgeStyle=orthogonalEdgeStyle;rounded=0;orthogonalLoop=1;jettySize=auto;html=1;entryX=0;entryY=0.5;entryDx=0;entryDy=0;fontFamily=Helvetica;fontStyle=0" parent="1" source="AJ-jYtxmaR9qbUo1SPaE-9" target="wE5hzmVtrxH4fMtxzaI--5" edge="1">
          <mxGeometry relative="1" as="geometry">
            <mxPoint x="249.9999999999999" y="190" as="targetPoint" />
            <Array as="points">
              <mxPoint x="425" y="640" />
              <mxPoint x="290" y="640" />
              <mxPoint x="290" y="190" />
            </Array>
          </mxGeometry>
        </mxCell>
        <mxCell id="AJ-jYtxmaR9qbUo1SPaE-9" value="data[j] = temp" style="rounded=0;whiteSpace=wrap;html=1;fontFamily=Helvetica;fontStyle=0;fontSize=19;" parent="1" vertex="1">
          <mxGeometry x="360" y="560" width="130" height="60" as="geometry" />
        </mxCell>
        <mxCell id="AJ-jYtxmaR9qbUo1SPaE-12" value="End" style="rounded=1;whiteSpace=wrap;html=1;arcSize=50;fontFamily=Helvetica;fontStyle=0;fontSize=41;" parent="1" vertex="1">
          <mxGeometry x="355.5" y="680" width="140" height="70" as="geometry" />
        </mxCell>
      </root>
    </mxGraphModel>
  </diagram>
</mxfile>
